<?xml version="1.0" encoding="utf-8"?>
<!DOCTYPE svg PUBLIC "-//W3C//DTD SVG 1.1//EN" "http://www.w3.org/Graphics/SVG/1.1/DTD/svg11.dtd">
<svg version="1.1" id="Layer_1" xmlns="http://www.w3.org/2000/svg" xmlns:xlink="http://www.w3.org/1999/xlink" x="0px"
	y="0px" width="500px" height="500px" viewBox="0 0 500 500" enable-background="new 0 0 500 500" xml:space="preserve">
	<g>
		<path fill="#19B3E6" stroke="#000000" stroke-width="10" d="M250.323,428.491h60.892c0-40.795,94.736-152.1,94.736-152.1c-69.364-54.752-129.59-219.188-149.028-276.63
		V258.93c12.343,2.795,21.583,13.789,21.583,26.982c0,15.306-12.405,27.711-27.711,27.711s-27.719-12.405-27.719-27.711
		c0-12.851,8.788-23.548,20.651-26.694V-0.25c-19.438,57.431-79.668,221.885-149.028,276.642c0,0,94.721,111.305,94.721,152.1
		H250.323z" />
		<path fill="#494949" stroke="#000000" stroke-width="10"
			d="M334.778,456.203c0-8.016-6.495-14.519-14.511-14.519h-139.89c-8.02,0-14.519,6.503-14.519,14.519
		s6.499,14.518,14.519,14.518c-8.02,0-14.519,6.495-14.519,14.519c0,8.016,6.499,14.511,14.519,14.511h139.89
		c8.016,0,14.511-6.495,14.511-14.511c0-8.023-6.495-14.519-14.511-14.519C328.283,470.721,334.778,464.219,334.778,456.203z" />
	</g>
</svg>